<svg width="112" height="18" viewBox="0 0 112 18" fill="none" xmlns="http://www.w3.org/2000/svg">
<path d="M26.14 13.202H26.588C26.952 12.9407 27.232 12.6467 27.428 12.32C27.6333 11.984 27.8153 11.3587 27.974 10.444C28.142 9.52933 28.2867 8.15733 28.408 6.328L28.66 2.66H32.93V13.202H33.854V15.946H33.014L32.916 14H27.078L26.98 15.946H26.14V13.202ZM31.866 13.202V3.472H29.598L29.388 6.566C29.276 8.34867 29.136 9.68333 28.968 10.57C28.8093 11.4567 28.6367 12.054 28.45 12.362C28.2633 12.6607 28.002 12.9407 27.666 13.202H31.866Z" fill="black"/>
<path d="M37.0165 14.126C36.2138 14.126 35.6538 13.8787 35.3365 13.384C35.0191 12.88 34.8605 12.11 34.8605 11.074V8.834C34.8605 7.798 35.0191 7.03267 35.3365 6.538C35.6538 6.034 36.2138 5.782 37.0165 5.782C37.8285 5.782 38.3931 6.034 38.7105 6.538C39.0278 7.03267 39.1865 7.798 39.1865 8.834V11.074C39.1865 12.11 39.0278 12.88 38.7105 13.384C38.3931 13.8787 37.8285 14.126 37.0165 14.126ZM37.0165 13.356C37.3525 13.356 37.5998 13.2673 37.7585 13.09C37.9265 12.9127 38.0338 12.6747 38.0805 12.376C38.1271 12.068 38.1505 11.6527 38.1505 11.13V8.778C38.1505 8.25533 38.1271 7.84467 38.0805 7.546C38.0338 7.238 37.9265 6.99533 37.7585 6.818C37.5998 6.64067 37.3525 6.552 37.0165 6.552C36.6805 6.552 36.4331 6.64067 36.2745 6.818C36.1158 6.99533 36.0131 7.238 35.9665 7.546C35.9198 7.84467 35.8965 8.25533 35.8965 8.778V11.13C35.8965 11.6527 35.9198 12.068 35.9665 12.376C36.0131 12.6747 36.1158 12.9127 36.2745 13.09C36.4331 13.2673 36.6805 13.356 37.0165 13.356Z" fill="black"/>
<path d="M42.6223 14.126C42.0249 14.126 41.5676 13.9953 41.2503 13.734C40.9329 13.4633 40.7183 13.104 40.6063 12.656C40.5036 12.1987 40.4523 11.6247 40.4523 10.934V9.044C40.4523 8.26 40.5129 7.63467 40.6343 7.168C40.7649 6.70133 40.9843 6.356 41.2923 6.132C41.6096 5.89867 42.0529 5.782 42.6223 5.782C43.4156 5.782 43.9569 6.00133 44.2463 6.44C44.5356 6.86933 44.6803 7.51333 44.6803 8.372V8.764H43.7283V8.372C43.7283 7.896 43.6909 7.52733 43.6163 7.266C43.5509 7.00467 43.4389 6.82267 43.2803 6.72C43.1216 6.608 42.9023 6.552 42.6223 6.552C42.3049 6.552 42.0623 6.62667 41.8943 6.776C41.7356 6.92533 41.6236 7.16333 41.5583 7.49C41.5023 7.80733 41.4743 8.26933 41.4743 8.876V11.144C41.4743 11.704 41.5069 12.1427 41.5723 12.46C41.6376 12.7773 41.7543 13.006 41.9223 13.146C42.0903 13.286 42.3283 13.356 42.6363 13.356C42.9536 13.356 43.1869 13.2907 43.3363 13.16C43.4949 13.02 43.5976 12.8147 43.6443 12.544C43.7003 12.2733 43.7283 11.8953 43.7283 11.41V10.962H44.6803V11.354C44.6803 11.9607 44.6243 12.4647 44.5123 12.866C44.4096 13.258 44.2089 13.566 43.9103 13.79C43.6116 14.014 43.1823 14.126 42.6223 14.126Z" fill="black"/>
<path d="M47.1117 6.692H45.3617V5.908H49.8557V6.692H48.1337V14H47.1117V6.692Z" fill="black"/>
<path d="M52.1371 14.126C51.6518 14.126 51.2598 13.9533 50.9611 13.608C50.6625 13.2627 50.5131 12.8333 50.5131 12.32C50.5131 11.788 50.6158 11.3493 50.8211 11.004C51.0358 10.6587 51.3625 10.3507 51.8011 10.08C52.2398 9.80933 52.8978 9.478 53.7751 9.086V8.512C53.7751 8.008 53.7425 7.616 53.6771 7.336C53.6211 7.056 53.5185 6.85533 53.3691 6.734C53.2291 6.61267 53.0285 6.552 52.7671 6.552C52.0111 6.552 51.6331 7.014 51.6331 7.938V8.218L50.6251 8.204C50.6345 7.37333 50.8118 6.762 51.1571 6.37C51.5025 5.978 52.0578 5.782 52.8231 5.782C53.5325 5.782 54.0365 5.99667 54.3351 6.426C54.6431 6.85533 54.7971 7.532 54.7971 8.456V12.39C54.7971 12.6513 54.8018 12.95 54.8111 13.286C54.8298 13.622 54.8485 13.86 54.8671 14H53.9571L53.8031 12.88C53.6818 13.2347 53.4718 13.5333 53.1731 13.776C52.8838 14.0093 52.5385 14.126 52.1371 14.126ZM52.4591 13.258C52.7391 13.258 52.9911 13.1647 53.2151 12.978C53.4485 12.782 53.6351 12.5533 53.7751 12.292V9.772C53.1405 10.108 52.6785 10.3693 52.3891 10.556C52.1091 10.7427 51.8945 10.9527 51.7451 11.186C51.6051 11.41 51.5351 11.704 51.5351 12.068C51.5351 12.4693 51.6191 12.768 51.7871 12.964C51.9645 13.16 52.1885 13.258 52.4591 13.258Z" fill="black"/>
<path d="M56.3016 5.908H58.2616C58.9896 5.908 59.5122 6.09 59.8296 6.454C60.1562 6.818 60.3242 7.28467 60.3336 7.854C60.3336 8.26467 60.2542 8.62867 60.0956 8.946C59.9369 9.254 59.6709 9.47333 59.2976 9.604C59.7269 9.72533 60.0349 9.97267 60.2216 10.346C60.4176 10.71 60.5156 11.1487 60.5156 11.662C60.5156 12.4273 60.3616 13.0107 60.0536 13.412C59.7456 13.804 59.1856 14 58.3736 14H56.3016V5.908ZM58.3316 9.324C58.6582 9.324 58.9149 9.20733 59.1016 8.974C59.2976 8.74067 59.3956 8.4 59.3956 7.952C59.3956 7.112 58.9802 6.692 58.1496 6.692H57.3096V9.324H58.3316ZM58.1916 13.216C58.6489 13.216 58.9802 13.0853 59.1856 12.824C59.4002 12.5627 59.5076 12.1613 59.5076 11.62C59.5076 11.0227 59.4002 10.6167 59.1856 10.402C58.9709 10.178 58.6629 10.066 58.2616 10.066H57.3096V13.216H58.1916Z" fill="black"/>
<path d="M61.7567 5.908H62.7787V9.478H63.3527L65.2007 5.908H66.2647L64.2907 9.814L66.3207 14H65.2567L63.3527 10.108H62.7787V14H61.7567V5.908Z" fill="black"/>
<path d="M68.5844 14.126C68.0991 14.126 67.7071 13.9533 67.4084 13.608C67.1097 13.2627 66.9604 12.8333 66.9604 12.32C66.9604 11.788 67.0631 11.3493 67.2684 11.004C67.4831 10.6587 67.8097 10.3507 68.2484 10.08C68.6871 9.80933 69.3451 9.478 70.2224 9.086V8.512C70.2224 8.008 70.1897 7.616 70.1244 7.336C70.0684 7.056 69.9657 6.85533 69.8164 6.734C69.6764 6.61267 69.4757 6.552 69.2144 6.552C68.4584 6.552 68.0804 7.014 68.0804 7.938V8.218L67.0724 8.204C67.0817 7.37333 67.2591 6.762 67.6044 6.37C67.9497 5.978 68.5051 5.782 69.2704 5.782C69.9797 5.782 70.4837 5.99667 70.7824 6.426C71.0904 6.85533 71.2444 7.532 71.2444 8.456V12.39C71.2444 12.6513 71.2491 12.95 71.2584 13.286C71.2771 13.622 71.2957 13.86 71.3144 14H70.4044L70.2504 12.88C70.1291 13.2347 69.9191 13.5333 69.6204 13.776C69.3311 14.0093 68.9857 14.126 68.5844 14.126ZM68.9064 13.258C69.1864 13.258 69.4384 13.1647 69.6624 12.978C69.8957 12.782 70.0824 12.5533 70.2224 12.292V9.772C69.5877 10.108 69.1257 10.3693 68.8364 10.556C68.5564 10.7427 68.3417 10.9527 68.1924 11.186C68.0524 11.41 67.9824 11.704 67.9824 12.068C67.9824 12.4693 68.0664 12.768 68.2344 12.964C68.4117 13.16 68.6357 13.258 68.9064 13.258Z" fill="black"/>
<path d="M77.3843 14.14C76.0403 14.14 75.3683 13.3373 75.3683 11.732H76.2783C76.2783 12.8427 76.6563 13.398 77.4123 13.398C77.8043 13.398 78.0843 13.2533 78.2523 12.964C78.4203 12.6747 78.5043 12.2547 78.5043 11.704C78.5043 11.172 78.3736 10.7847 78.1123 10.542C77.8603 10.2993 77.4263 10.178 76.8103 10.178V9.422C77.4449 9.422 77.8836 9.31 78.1263 9.086C78.3783 8.862 78.5043 8.512 78.5043 8.036C78.5043 7.588 78.4063 7.22867 78.2103 6.958C78.0236 6.68733 77.7529 6.552 77.3983 6.552C76.6049 6.552 76.2083 7.042 76.2083 8.022H75.3123C75.3123 6.52867 76.0169 5.782 77.4263 5.782C78.0889 5.782 78.5836 5.992 78.9103 6.412C79.2463 6.832 79.4143 7.35467 79.4143 7.98C79.4143 8.53067 79.2836 8.95533 79.0223 9.254C78.7609 9.55267 78.4389 9.73 78.0563 9.786C78.4856 9.90733 78.8216 10.1127 79.0643 10.402C79.3163 10.6913 79.4423 11.1627 79.4423 11.816C79.4423 12.5533 79.2649 13.1273 78.9103 13.538C78.5556 13.9393 78.0469 14.14 77.3843 14.14Z" fill="black"/>
<path d="M82.1059 14.126C81.6205 14.126 81.2285 13.9533 80.9299 13.608C80.6312 13.2627 80.4819 12.8333 80.4819 12.32C80.4819 11.788 80.5845 11.3493 80.7899 11.004C81.0045 10.6587 81.3312 10.3507 81.7699 10.08C82.2085 9.80933 82.8665 9.478 83.7439 9.086V8.512C83.7439 8.008 83.7112 7.616 83.6459 7.336C83.5899 7.056 83.4872 6.85533 83.3379 6.734C83.1979 6.61267 82.9972 6.552 82.7359 6.552C81.9799 6.552 81.6019 7.014 81.6019 7.938V8.218L80.5939 8.204C80.6032 7.37333 80.7805 6.762 81.1259 6.37C81.4712 5.978 82.0265 5.782 82.7919 5.782C83.5012 5.782 84.0052 5.99667 84.3039 6.426C84.6119 6.85533 84.7659 7.532 84.7659 8.456V12.39C84.7659 12.6513 84.7705 12.95 84.7799 13.286C84.7985 13.622 84.8172 13.86 84.8359 14H83.9259L83.7719 12.88C83.6505 13.2347 83.4405 13.5333 83.1419 13.776C82.8525 14.0093 82.5072 14.126 82.1059 14.126ZM82.4279 13.258C82.7079 13.258 82.9599 13.1647 83.1839 12.978C83.4172 12.782 83.6039 12.5533 83.7439 12.292V9.772C83.1092 10.108 82.6472 10.3693 82.3579 10.556C82.0779 10.7427 81.8632 10.9527 81.7139 11.186C81.5739 11.41 81.5039 11.704 81.5039 12.068C81.5039 12.4693 81.5879 12.768 81.7559 12.964C81.9332 13.16 82.1572 13.258 82.4279 13.258Z" fill="black"/>
<path d="M90.6957 4.032C90.6024 4.16267 90.4064 4.284 90.1077 4.396C89.8184 4.49867 89.4311 4.62467 88.9457 4.774V3.948C89.2817 3.85467 89.6364 3.696 90.0098 3.472C90.3831 3.248 90.6817 2.97733 90.9057 2.66H91.7318V14H90.6957V4.032Z" fill="black"/>
<path d="M97.1258 5.908H100.108V6.678H98.1478V14H97.1258V5.908Z" fill="black"/>
<path d="M101.091 5.908H102.113V6.58C102.533 6.048 103.051 5.782 103.667 5.782C104.376 5.782 104.857 6.076 105.109 6.664C105.37 7.24267 105.501 8.022 105.501 9.002V10.71C105.501 11.8207 105.356 12.67 105.067 13.258C104.777 13.8367 104.273 14.126 103.555 14.126C103.051 14.126 102.57 13.8693 102.113 13.356V16.66H101.091V5.908ZM103.401 13.314C103.83 13.314 104.115 13.1133 104.255 12.712C104.404 12.3107 104.479 11.6527 104.479 10.738V9.002C104.479 8.134 104.404 7.51333 104.255 7.14C104.115 6.76667 103.821 6.58 103.373 6.58C102.953 6.58 102.533 6.79 102.113 7.21V12.726C102.486 13.118 102.915 13.314 103.401 13.314Z" fill="black"/>
<path d="M106.929 5.908H107.951V9.436H110.471V5.908H111.507V14H110.471V10.206H107.951V14H106.929V5.908Z" fill="black"/>
<path d="M17.4261 4.38989L11.1761 0.952393C11.0838 0.901622 10.9801 0.875 10.8748 0.875C10.7695 0.875 10.6658 0.901622 10.5736 0.952393L4.32356 4.38989C4.22556 4.44385 4.14385 4.52311 4.08694 4.61941C4.03002 4.71572 4 4.82553 4 4.93739C4 5.04926 4.03002 5.15907 4.08694 5.25537C4.14385 5.35168 4.22556 5.43094 4.32356 5.48489L10.2498 8.74427V15.4436L8.35231 14.3999L7.74981 15.4943L10.5736 17.0474C10.6658 17.0983 10.7694 17.125 10.8748 17.125C10.9802 17.125 11.0838 17.0983 11.1761 17.0474L17.4261 13.6099C17.5241 13.556 17.6058 13.4767 17.6628 13.3804C17.7197 13.2841 17.7498 13.1743 17.7498 13.0624V4.93739C17.7498 4.82551 17.7197 4.71568 17.6628 4.61938C17.6058 4.52307 17.5241 4.44382 17.4261 4.38989ZM10.8748 2.21364L15.8279 4.93739L10.8748 7.66114L5.92168 4.93739L10.8748 2.21364ZM16.4998 12.693L11.4998 15.443V8.74364L16.4998 5.99364V12.693Z" fill="black"/>
<path d="M5.25 9H0.25V7.75H5.25V9Z" fill="black"/>
<path d="M6.5 14H1.5V12.75H6.5V14Z" fill="black"/>
<path d="M7.75 11.5H2.75V10.25H7.75V11.5Z" fill="black"/>
</svg>
