<svg xmlns="http://www.w3.org/2000/svg">
    <defs> </defs>
    <symbol id="main-logo" width="46" height="21" viewBox="0 0 46 21" fill="none" xmlns="http://www.w3.org/2000/svg">
        <path d="M3.46 8.4L0.3 0.799999H3.06L5.16 5.84L7 0.799999H9.54L6.44 8.96L9.78 17H7.04L4.74 11.54L2.74 17H0.2L3.46 8.4ZM11.2005 0.799999H14.1405V14.98H18.0805V17H11.2005V0.799999ZM22.9384 17.18C21.6984 17.18 20.7718 16.84 20.1584 16.16C19.5451 15.4667 19.2384 14.4667 19.2384 13.16V9.28C19.2384 7.97333 19.5451 6.98 20.1584 6.3C20.7718 5.60667 21.6984 5.26 22.9384 5.26C24.1784 5.26 25.1051 5.60667 25.7184 6.3C26.3451 6.98 26.6584 7.97333 26.6584 9.28V13.16C26.6584 14.4667 26.3451 15.4667 25.7184 16.16C25.1051 16.84 24.1784 17.18 22.9384 17.18ZM22.9584 15.3C23.3718 15.3 23.6451 15.14 23.7784 14.82C23.9118 14.4867 23.9784 14 23.9784 13.36V9.1C23.9784 8.46 23.9118 7.97333 23.7784 7.64C23.6451 7.30667 23.3718 7.14 22.9584 7.14C22.5318 7.14 22.2518 7.30667 22.1184 7.64C21.9851 7.97333 21.9184 8.46 21.9184 9.1V13.36C21.9184 14 21.9851 14.4867 22.1184 14.82C22.2518 15.14 22.5318 15.3 22.9584 15.3ZM31.94 20.8C30.7133 20.8 29.74 20.6067 29.02 20.22C28.3 19.8467 27.94 19.28 27.94 18.52C27.94 18.0133 28.1 17.5667 28.42 17.18C28.74 16.8067 29.16 16.5 29.68 16.26C29.24 16.1267 28.9 15.9333 28.66 15.68C28.4333 15.4133 28.32 15.0933 28.32 14.72C28.32 14.2933 28.42 13.92 28.62 13.6C28.8333 13.28 29.16 12.9267 29.6 12.54C29.1867 12.2067 28.8733 11.7867 28.66 11.28C28.46 10.76 28.36 10.1067 28.36 9.32C28.36 8 28.6733 6.99333 29.3 6.3C29.94 5.60667 30.8667 5.26 32.08 5.26C33.2533 5.26 34.1067 5.62 34.64 6.34C34.76 6.15333 34.9533 5.94667 35.22 5.72C35.4867 5.49333 35.7867 5.3 36.12 5.14L36.5 4.98L37.14 6.44C36.9 6.50667 36.5733 6.62667 36.16 6.8C35.7467 6.96 35.4467 7.1 35.26 7.22C35.38 7.48667 35.48 7.82 35.56 8.22C35.64 8.62 35.68 9 35.68 9.36C35.68 10.6267 35.3867 11.6133 34.8 12.32C34.2133 13.0133 33.3067 13.36 32.08 13.36C31.5467 13.36 31.0267 13.28 30.52 13.12C30.2933 13.4533 30.18 13.72 30.18 13.92C30.18 14.08 30.26 14.2067 30.42 14.3C30.58 14.38 30.8467 14.44 31.22 14.48L33.64 14.72C35.5067 14.92 36.44 15.8933 36.44 17.64C36.44 18.6933 36.0733 19.48 35.34 20C34.62 20.5333 33.4867 20.8 31.94 20.8ZM32.08 11.64C32.5333 11.64 32.8333 11.4667 32.98 11.12C33.1267 10.7733 33.2 10.1733 33.2 9.32C33.2 8.48 33.1267 7.88 32.98 7.52C32.8333 7.16 32.5333 6.98 32.08 6.98C31.6267 6.98 31.32 7.16 31.16 7.52C31 7.86667 30.92 8.46667 30.92 9.32C30.92 10.12 31 10.7067 31.16 11.08C31.32 11.4533 31.6267 11.64 32.08 11.64ZM32.24 18.76C33 18.76 33.56 18.68 33.92 18.52C34.2933 18.3733 34.48 18.1133 34.48 17.74C34.48 17.42 34.36 17.18 34.12 17.02C33.8933 16.8733 33.46 16.7667 32.82 16.7L30.84 16.52C30.5867 16.7333 30.3933 16.9333 30.26 17.12C30.1267 17.32 30.06 17.54 30.06 17.78C30.06 18.1133 30.2267 18.36 30.56 18.52C30.8933 18.68 31.4533 18.76 32.24 18.76ZM41.3759 17.18C40.1359 17.18 39.2093 16.84 38.5959 16.16C37.9826 15.4667 37.6759 14.4667 37.6759 13.16V9.28C37.6759 7.97333 37.9826 6.98 38.5959 6.3C39.2093 5.60667 40.1359 5.26 41.3759 5.26C42.6159 5.26 43.5426 5.60667 44.1559 6.3C44.7826 6.98 45.0959 7.97333 45.0959 9.28V13.16C45.0959 14.4667 44.7826 15.4667 44.1559 16.16C43.5426 16.84 42.6159 17.18 41.3759 17.18ZM41.3959 15.3C41.8093 15.3 42.0826 15.14 42.2159 14.82C42.3493 14.4867 42.4159 14 42.4159 13.36V9.1C42.4159 8.46 42.3493 7.97333 42.2159 7.64C42.0826 7.30667 41.8093 7.14 41.3959 7.14C40.9693 7.14 40.6893 7.30667 40.5559 7.64C40.4226 7.97333 40.3559 8.46 40.3559 9.1V13.36C40.3559 14 40.4226 14.4867 40.5559 14.82C40.6893 15.14 40.9693 15.3 41.3959 15.3Z" fill="white"/>
    </symbol>
    <symbol id="catalog-icon" width="17" height="17" viewBox="0 0 17 17" fill="none" xmlns="http://www.w3.org/2000/svg">
        <path d="M2.375 4.125C2.83913 4.125 3.28425 3.94063 3.61244 3.61244C3.94063 3.28425 4.125 2.83913 4.125 2.375C4.125 1.91087 3.94063 1.46575 3.61244 1.13756C3.28425 0.809374 2.83913 0.625 2.375 0.625C1.91087 0.625 1.46575 0.809374 1.13756 1.13756C0.809374 1.46575 0.625 1.91087 0.625 2.375C0.625 2.83913 0.809374 3.28425 1.13756 3.61244C1.46575 3.94063 1.91087 4.125 2.375 4.125Z" fill="white"/>
        <path d="M8.5 4.125C8.96413 4.125 9.40925 3.94063 9.73744 3.61244C10.0656 3.28425 10.25 2.83913 10.25 2.375C10.25 1.91087 10.0656 1.46575 9.73744 1.13756C9.40925 0.809374 8.96413 0.625 8.5 0.625C8.03587 0.625 7.59075 0.809374 7.26256 1.13756C6.93437 1.46575 6.75 1.91087 6.75 2.375C6.75 2.83913 6.93437 3.28425 7.26256 3.61244C7.59075 3.94063 8.03587 4.125 8.5 4.125Z" fill="white"/>
        <path d="M14.625 4.125C15.0891 4.125 15.5342 3.94063 15.8624 3.61244C16.1906 3.28425 16.375 2.83913 16.375 2.375C16.375 1.91087 16.1906 1.46575 15.8624 1.13756C15.5342 0.809374 15.0891 0.625 14.625 0.625C14.1609 0.625 13.7158 0.809374 13.3876 1.13756C13.0594 1.46575 12.875 1.91087 12.875 2.375C12.875 2.83913 13.0594 3.28425 13.3876 3.61244C13.7158 3.94063 14.1609 4.125 14.625 4.125Z" fill="white"/>
        <path d="M2.375 10.25C2.83913 10.25 3.28425 10.0656 3.61244 9.73744C3.94063 9.40925 4.125 8.96413 4.125 8.5C4.125 8.03587 3.94063 7.59075 3.61244 7.26256C3.28425 6.93437 2.83913 6.75 2.375 6.75C1.91087 6.75 1.46575 6.93437 1.13756 7.26256C0.809374 7.59075 0.625 8.03587 0.625 8.5C0.625 8.96413 0.809374 9.40925 1.13756 9.73744C1.46575 10.0656 1.91087 10.25 2.375 10.25Z" fill="white"/>
        <path d="M8.5 10.25C8.96413 10.25 9.40925 10.0656 9.73744 9.73744C10.0656 9.40925 10.25 8.96413 10.25 8.5C10.25 8.03587 10.0656 7.59075 9.73744 7.26256C9.40925 6.93437 8.96413 6.75 8.5 6.75C8.03587 6.75 7.59075 6.93437 7.26256 7.26256C6.93437 7.59075 6.75 8.03587 6.75 8.5C6.75 8.96413 6.93437 9.40925 7.26256 9.73744C7.59075 10.0656 8.03587 10.25 8.5 10.25Z" fill="white"/>
        <path d="M14.625 10.25C15.0891 10.25 15.5342 10.0656 15.8624 9.73744C16.1906 9.40925 16.375 8.96413 16.375 8.5C16.375 8.03587 16.1906 7.59075 15.8624 7.26256C15.5342 6.93437 15.0891 6.75 14.625 6.75C14.1609 6.75 13.7158 6.93437 13.3876 7.26256C13.0594 7.59075 12.875 8.03587 12.875 8.5C12.875 8.96413 13.0594 9.40925 13.3876 9.73744C13.7158 10.0656 14.1609 10.25 14.625 10.25Z" fill="white"/>
        <path d="M2.375 16.375C2.83913 16.375 3.28425 16.1906 3.61244 15.8624C3.94063 15.5343 4.125 15.0891 4.125 14.625C4.125 14.1609 3.94063 13.7158 3.61244 13.3876C3.28425 13.0594 2.83913 12.875 2.375 12.875C1.91087 12.875 1.46575 13.0594 1.13756 13.3876C0.809374 13.7158 0.625 14.1609 0.625 14.625C0.625 15.0891 0.809374 15.5343 1.13756 15.8624C1.46575 16.1906 1.91087 16.375 2.375 16.375Z" fill="white"/>
        <path d="M8.5 16.375C8.96413 16.375 9.40925 16.1906 9.73744 15.8624C10.0656 15.5343 10.25 15.0891 10.25 14.625C10.25 14.1609 10.0656 13.7158 9.73744 13.3876C9.40925 13.0594 8.96413 12.875 8.5 12.875C8.03587 12.875 7.59075 13.0594 7.26256 13.3876C6.93437 13.7158 6.75 14.1609 6.75 14.625C6.75 15.0891 6.93437 15.5343 7.26256 15.8624C7.59075 16.1906 8.03587 16.375 8.5 16.375Z" fill="white"/>
        <path d="M14.625 16.375C15.0891 16.375 15.5342 16.1906 15.8624 15.8624C16.1906 15.5343 16.375 15.0891 16.375 14.625C16.375 14.1609 16.1906 13.7158 15.8624 13.3876C15.5342 13.0594 15.0891 12.875 14.625 12.875C14.1609 12.875 13.7158 13.0594 13.3876 13.3876C13.0594 13.7158 12.875 14.1609 12.875 14.625C12.875 15.0891 13.0594 15.5343 13.3876 15.8624C13.7158 16.1906 14.1609 16.375 14.625 16.375Z" fill="white"/>
    </symbol>
    <symbol id="search-icon" width="16" height="16" viewBox="0 0 16 16" stroke="inherit" fill="none" xmlns="http://www.w3.org/2000/svg">
        <path stroke="inherit" d="M14.75 14.75L11.3855 11.3795L14.75 14.75ZM13.25 6.875C13.25 8.56576 12.5784 10.1873 11.3828 11.3828C10.1873 12.5784 8.56576 13.25 6.875 13.25C5.18424 13.25 3.56274 12.5784 2.36719 11.3828C1.17165 10.1873 0.5 8.56576 0.5 6.875C0.5 5.18424 1.17165 3.56274 2.36719 2.36719C3.56274 1.17165 5.18424 0.5 6.875 0.5C8.56576 0.5 10.1873 1.17165 11.3828 2.36719C12.5784 3.56274 13.25 5.18424 13.25 6.875V6.875Z"  stroke-linecap="round"/>
    </symbol>
    <symbol id="voice-icon" width="10" height="13" viewBox="0 0 10 13" fill="none" xmlns="http://www.w3.org/2000/svg">
        <path d="M4.99998 8C6.10665 8 6.99331 7.10667 6.99331 6L6.99998 2C6.99998 0.893334 6.10665 0 4.99998 0C3.89331 0 2.99998 0.893334 2.99998 2V6C2.99998 7.10667 3.89331 8 4.99998 8ZM8.53331 6C8.53331 8 6.83998 9.4 4.99998 9.4C3.15998 9.4 1.46665 8 1.46665 6H0.333313C0.333313 8.28 2.14665 10.1533 4.33331 10.48V12.6667H5.66665V10.48C7.85331 10.16 9.66665 8.28 9.66665 6H8.53331Z" fill="black"/>
    </symbol>
    <symbol id="liked-icon" width="30" height="30" viewBox="-2 -2 30 30" fill="inherit" xmlns="http://www.w3.org/2000/svg">
        <path id='hovered' d="M16.0669 2.14628e-06C15.2857 -0.00067203 14.5123 0.157486 13.792 0.465204C13.0716 0.772921 12.4189 1.224 11.872 1.792L11 2.688L10.128 1.792C9.58045 1.22503 8.92752 0.774729 8.20732 0.467354C7.48711 0.159979 6.71402 0.00167794 5.93312 0.00167794C5.15222 0.00167794 4.37914 0.159979 3.65893 0.467354C2.93872 0.774729 2.28579 1.22503 1.73822 1.792C0.624195 2.9469 0 4.50109 0 6.12C0 7.73891 0.624195 9.2931 1.73822 10.448L11 20L20.2618 10.448C21.3758 9.2931 22 7.73891 22 6.12C22 4.50109 21.3758 2.9469 20.2618 1.792C19.7143 1.22473 19.0615 0.774116 18.3413 0.466451C17.621 0.158786 16.8479 0.000220878 16.0669 2.14628e-06Z" fill="inherit" />
    </symbol>
    <symbol id="cart-icon" width="22" height="21" viewBox="0 0 22 21" fill="none" xmlns="http://www.w3.org/2000/svg">
        <path d="M0.020813 1.78125C0.020813 1.55747 0.116293 1.34286 0.286247 1.18463C0.456202 1.02639 0.686711 0.9375 0.927063 0.9375H1.60131C2.74923 0.9375 3.43798 1.65637 3.83069 2.32462C4.0929 2.77012 4.2826 3.2865 4.43123 3.7545C4.47143 3.75155 4.51174 3.75004 4.55206 3.75H19.6538C20.6567 3.75 21.3817 4.64325 21.1062 5.54213L18.8974 12.7523C18.6994 13.399 18.2804 13.968 17.7039 14.3732C17.1274 14.7783 16.4249 14.9976 15.7026 14.9978H8.5154C7.78737 14.9978 7.07948 14.7752 6.50053 14.3642C5.92158 13.9533 5.50363 13.3766 5.3109 12.723L4.39256 9.6045L2.87006 4.8255L2.86885 4.8165C2.68035 4.17863 2.50394 3.58125 2.24052 3.13575C1.98798 2.70263 1.78498 2.625 1.60252 2.625H0.927063C0.686711 2.625 0.456202 2.53611 0.286247 2.37787C0.116293 2.21964 0.020813 2.00503 0.020813 1.78125ZM6.15069 9.195L7.05815 12.2764C7.2394 12.8861 7.8351 13.3103 8.5154 13.3103H15.7026C16.0309 13.3102 16.3502 13.2106 16.6123 13.0265C16.8744 12.8424 17.0649 12.5838 17.155 12.2899L19.2539 5.4375H4.95685L6.13377 9.13538L6.15069 9.195Z" fill="white"/>
        <path d="M10.2916 18.375C10.2916 18.9717 10.037 19.544 9.58382 19.966C9.13061 20.3879 8.51592 20.625 7.87498 20.625C7.23404 20.625 6.61935 20.3879 6.16614 19.966C5.71293 19.544 5.45831 18.9717 5.45831 18.375C5.45831 17.7783 5.71293 17.206 6.16614 16.784C6.61935 16.3621 7.23404 16.125 7.87498 16.125C8.51592 16.125 9.13061 16.3621 9.58382 16.784C10.037 17.206 10.2916 17.7783 10.2916 18.375ZM8.47915 18.375C8.47915 18.2258 8.41549 18.0827 8.30219 17.9773C8.18889 17.8718 8.03521 17.8125 7.87498 17.8125C7.71475 17.8125 7.56107 17.8718 7.44777 17.9773C7.33447 18.0827 7.27081 18.2258 7.27081 18.375C7.27081 18.5242 7.33447 18.6673 7.44777 18.7727C7.56107 18.8782 7.71475 18.9375 7.87498 18.9375C8.03521 18.9375 8.18889 18.8782 8.30219 18.7727C8.41549 18.6673 8.47915 18.5242 8.47915 18.375Z" fill="white"/>
        <path d="M18.7499 18.375C18.7499 18.9717 18.4953 19.544 18.0421 19.966C17.5889 20.3879 16.9742 20.625 16.3333 20.625C15.6923 20.625 15.0776 20.3879 14.6244 19.966C14.1712 19.544 13.9166 18.9717 13.9166 18.375C13.9166 17.7783 14.1712 17.206 14.6244 16.784C15.0776 16.3621 15.6923 16.125 16.3333 16.125C16.9742 16.125 17.5889 16.3621 18.0421 16.784C18.4953 17.206 18.7499 17.7783 18.7499 18.375ZM16.9374 18.375C16.9374 18.2258 16.8738 18.0827 16.7605 17.9773C16.6472 17.8718 16.4935 17.8125 16.3333 17.8125C16.173 17.8125 16.0194 17.8718 15.9061 17.9773C15.7928 18.0827 15.7291 18.2258 15.7291 18.375C15.7291 18.5242 15.7928 18.6673 15.9061 18.7727C16.0194 18.8782 16.173 18.9375 16.3333 18.9375C16.4935 18.9375 16.6472 18.8782 16.7605 18.7727C16.8738 18.6673 16.9374 18.5242 16.9374 18.375Z" fill="white"/>
    </symbol>
    <symbol id="account-icon-svg" width="16" height="18" viewBox="0 0 16 18" fill="none" xmlns="http://www.w3.org/2000/svg">
        <path d="M8 9C10.0711 9 11.75 7.32107 11.75 5.25C11.75 3.17893 10.0711 1.5 8 1.5C5.92893 1.5 4.25 3.17893 4.25 5.25C4.25 7.32107 5.92893 9 8 9Z" stroke="black" stroke-width="2"/>
        <path d="M11.75 10.5H12.014C12.5624 10.5002 13.0917 10.7005 13.5027 11.0635C13.9137 11.4264 14.1781 11.9269 14.246 12.471L14.5393 14.814C14.5657 15.0251 14.5469 15.2393 14.4841 15.4426C14.4213 15.6458 14.3161 15.8334 14.1753 15.9928C14.0345 16.1523 13.8614 16.28 13.6675 16.3674C13.4735 16.4549 13.2633 16.5 13.0505 16.5H2.94955C2.73683 16.5 2.52654 16.4549 2.33263 16.3674C2.13872 16.28 1.96562 16.1523 1.82483 15.9928C1.68403 15.8334 1.57876 15.6458 1.516 15.4426C1.45324 15.2393 1.43442 15.0251 1.4608 14.814L1.7533 12.471C1.82132 11.9267 2.08586 11.4259 2.49717 11.063C2.90848 10.7 3.43823 10.4998 3.9868 10.5H4.25005" stroke="black" stroke-width="2" stroke-linecap="round" stroke-linejoin="round"/>
    </symbol>
    <symbol id="slider-arrow" width="8" height="14" viewBox="0 0 8 14" fill="none" xmlns="http://www.w3.org/2000/svg">
        <path id="arrow-path" d="M1 1L7 7L1 13" stroke="inherit" stroke-width="2" stroke-linecap="round" stroke-linejoin="round"/>
    </symbol>
    <symbol id="submit-mobile-icon" width="10" height="15" viewBox="0 0 10 15" fill="none" xmlns="http://www.w3.org/2000/svg">
        <path d="M1 1L8 7.5L1 14" stroke="white" stroke-width="2"/>
    </symbol>
    <symbol id="footer-logo-svg" width="95" height="43" viewBox="0 0 95 43" fill="none" xmlns="http://www.w3.org/2000/svg">
        <path d="M7.266 16.94L0.63 0.979997H6.426L10.836 11.564L14.7 0.979997H20.034L13.524 18.116L20.538 35H14.784L9.954 23.534L5.754 35H0.42L7.266 16.94ZM23.521 0.979997H29.695V30.758H37.969V35H23.521V0.979997ZM48.1707 35.378C45.5667 35.378 43.6207 34.664 42.3327 33.236C41.0447 31.78 40.4007 29.68 40.4007 26.936V18.788C40.4007 16.044 41.0447 13.958 42.3327 12.53C43.6207 11.074 45.5667 10.346 48.1707 10.346C50.7747 10.346 52.7207 11.074 54.0087 12.53C55.3247 13.958 55.9827 16.044 55.9827 18.788V26.936C55.9827 29.68 55.3247 31.78 54.0087 33.236C52.7207 34.664 50.7747 35.378 48.1707 35.378ZM48.2127 31.43C49.0807 31.43 49.6547 31.094 49.9347 30.422C50.2147 29.722 50.3547 28.7 50.3547 27.356V18.41C50.3547 17.066 50.2147 16.044 49.9347 15.344C49.6547 14.644 49.0807 14.294 48.2127 14.294C47.3167 14.294 46.7287 14.644 46.4487 15.344C46.1687 16.044 46.0287 17.066 46.0287 18.41V27.356C46.0287 28.7 46.1687 29.722 46.4487 30.422C46.7287 31.094 47.3167 31.43 48.2127 31.43ZM67.074 42.98C64.498 42.98 62.454 42.574 60.942 41.762C59.43 40.978 58.674 39.788 58.674 38.192C58.674 37.128 59.01 36.19 59.682 35.378C60.354 34.594 61.236 33.95 62.328 33.446C61.404 33.166 60.69 32.76 60.186 32.228C59.71 31.668 59.472 30.996 59.472 30.212C59.472 29.316 59.682 28.532 60.102 27.86C60.55 27.188 61.236 26.446 62.16 25.634C61.292 24.934 60.634 24.052 60.186 22.988C59.766 21.896 59.556 20.524 59.556 18.872C59.556 16.1 60.214 13.986 61.53 12.53C62.874 11.074 64.82 10.346 67.368 10.346C69.832 10.346 71.624 11.102 72.744 12.614C72.996 12.222 73.402 11.788 73.962 11.312C74.522 10.836 75.152 10.43 75.852 10.094L76.65 9.758L77.994 12.824C77.49 12.964 76.804 13.216 75.936 13.58C75.068 13.916 74.438 14.21 74.046 14.462C74.298 15.022 74.508 15.722 74.676 16.562C74.844 17.402 74.928 18.2 74.928 18.956C74.928 21.616 74.312 23.688 73.08 25.172C71.848 26.628 69.944 27.356 67.368 27.356C66.248 27.356 65.156 27.188 64.092 26.852C63.616 27.552 63.378 28.112 63.378 28.532C63.378 28.868 63.546 29.134 63.882 29.33C64.218 29.498 64.778 29.624 65.562 29.708L70.644 30.212C74.564 30.632 76.524 32.676 76.524 36.344C76.524 38.556 75.754 40.208 74.214 41.3C72.702 42.42 70.322 42.98 67.074 42.98ZM67.368 23.744C68.32 23.744 68.95 23.38 69.258 22.652C69.566 21.924 69.72 20.664 69.72 18.872C69.72 17.108 69.566 15.848 69.258 15.092C68.95 14.336 68.32 13.958 67.368 13.958C66.416 13.958 65.772 14.336 65.436 15.092C65.1 15.82 64.932 17.08 64.932 18.872C64.932 20.552 65.1 21.784 65.436 22.568C65.772 23.352 66.416 23.744 67.368 23.744ZM67.704 38.696C69.3 38.696 70.476 38.528 71.232 38.192C72.016 37.884 72.408 37.338 72.408 36.554C72.408 35.882 72.156 35.378 71.652 35.042C71.176 34.734 70.266 34.51 68.922 34.37L64.764 33.992C64.232 34.44 63.826 34.86 63.546 35.252C63.266 35.672 63.126 36.134 63.126 36.638C63.126 37.338 63.476 37.856 64.176 38.192C64.876 38.528 66.052 38.696 67.704 38.696ZM86.8895 35.378C84.2855 35.378 82.3395 34.664 81.0515 33.236C79.7635 31.78 79.1195 29.68 79.1195 26.936V18.788C79.1195 16.044 79.7635 13.958 81.0515 12.53C82.3395 11.074 84.2855 10.346 86.8895 10.346C89.4935 10.346 91.4395 11.074 92.7275 12.53C94.0435 13.958 94.7015 16.044 94.7015 18.788V26.936C94.7015 29.68 94.0435 31.78 92.7275 33.236C91.4395 34.664 89.4935 35.378 86.8895 35.378ZM86.9315 31.43C87.7995 31.43 88.3735 31.094 88.6535 30.422C88.9335 29.722 89.0735 28.7 89.0735 27.356V18.41C89.0735 17.066 88.9335 16.044 88.6535 15.344C88.3735 14.644 87.7995 14.294 86.9315 14.294C86.0355 14.294 85.4475 14.644 85.1675 15.344C84.8875 16.044 84.7475 17.066 84.7475 18.41V27.356C84.7475 28.7 84.8875 29.722 85.1675 30.422C85.4475 31.094 86.0355 31.43 86.9315 31.43Z" fill="white"/>
    </symbol>
    <symbol id="instagram-icon" width="36" height="36" viewBox="0 0 36 36" fill="none" xmlns="http://www.w3.org/2000/svg">
        <circle r="18" transform="matrix(-1 0 0 1 18 18)" fill="white"/>
        <path d="M18.4977 14.6655C16.9369 14.6655 15.6632 15.9392 15.6632 17.5C15.6632 19.0608 16.9369 20.3345 18.4977 20.3345C20.0585 20.3345 21.3322 19.0608 21.3322 17.5C21.3322 15.9392 20.0585 14.6655 18.4977 14.6655ZM26.9991 17.5C26.9991 16.3262 27.0097 15.163 26.9438 13.9914C26.8778 12.6305 26.5674 11.4226 25.5722 10.4275C24.575 9.43017 23.3693 9.12184 22.0084 9.05592C20.8346 8.99 19.6715 9.00063 18.4998 9.00063C17.3261 9.00063 16.1629 8.99 14.9913 9.05592C13.6304 9.12184 12.4226 9.4323 11.4274 10.4275C10.4302 11.4248 10.1218 12.6305 10.0559 13.9914C9.99 15.1652 10.0006 16.3283 10.0006 17.5C10.0006 18.6717 9.99 19.837 10.0559 21.0086C10.1218 22.3695 10.4323 23.5774 11.4274 24.5725C12.4247 25.5698 13.6304 25.8782 14.9913 25.9441C16.1651 26.01 17.3282 25.9994 18.4998 25.9994C19.6736 25.9994 20.8368 26.01 22.0084 25.9441C23.3693 25.8782 24.5771 25.5677 25.5722 24.5725C26.5695 23.5752 26.8778 22.3695 26.9438 21.0086C27.0118 19.837 26.9991 18.6738 26.9991 17.5ZM18.4977 21.8613C16.0843 21.8613 14.1365 19.9135 14.1365 17.5C14.1365 15.0865 16.0843 13.1387 18.4977 13.1387C20.9112 13.1387 22.859 15.0865 22.859 17.5C22.859 19.9135 20.9112 21.8613 18.4977 21.8613ZM23.0376 13.9786C22.4741 13.9786 22.019 13.5236 22.019 12.9601C22.019 12.3966 22.4741 11.9415 23.0376 11.9415C23.6011 11.9415 24.0561 12.3966 24.0561 12.9601C24.0563 13.0939 24.0301 13.2264 23.9789 13.35C23.9278 13.4737 23.8528 13.586 23.7582 13.6807C23.6636 13.7753 23.5512 13.8503 23.4276 13.9014C23.3039 13.9526 23.1714 13.9788 23.0376 13.9786Z" fill="#1C2D10"/>
    </symbol>
    <symbol id="facebook-icon" width="36" height="36" viewBox="0 0 36 36" fill="none" xmlns="http://www.w3.org/2000/svg">
        <circle r="18" transform="matrix(-1 0 0 1 18 18)" fill="white"/>
        <path d="M15.8214 12.3565V14.6803H14.1428V17.5573H15.8214V26.0409H19.2143V17.5573H21.5357C21.6785 16.6475 21.7738 15.6885 21.8214 14.6803H19.25V12.7254C19.25 12.5778 19.3273 12.4241 19.4821 12.2643C19.6369 12.1045 19.8095 12.0246 20 12.0246H21.8571V9.07373H19.3214C18.6547 9.07373 18.0773 9.17824 17.5893 9.38726C17.1012 9.59627 16.75 9.82988 16.5357 10.0881C16.3214 10.3463 16.1547 10.6598 16.0357 11.0286C15.9166 11.3975 15.8512 11.6618 15.8393 11.8217C15.8273 11.9815 15.8214 12.1598 15.8214 12.3565Z" fill="#1C2D10"/>
    </symbol>
    <symbol id="telegram-icon" width="36" height="36" viewBox="0 0 36 36" fill="none" xmlns="http://www.w3.org/2000/svg">
        <circle r="18" transform="matrix(-1 0 0 1 18 18)" fill="white"/>
        <path d="M24.2208 11.0974L9.44583 16.7948C8.4375 17.1999 8.44333 17.7623 9.26083 18.0132L13.0542 19.1965L21.8308 13.659C22.2458 13.4065 22.625 13.5423 22.3133 13.819L15.2025 20.2365H15.2008L15.2025 20.2373L14.9408 24.1474C15.3242 24.1474 15.4933 23.9715 15.7083 23.764L17.5508 21.9724L21.3833 24.8032C22.09 25.1923 22.5975 24.9923 22.7733 24.149L25.2892 12.2924C25.5467 11.2599 24.895 10.7924 24.2208 11.0974Z" fill="#1C2D10"/>
    </symbol>
    <symbol id="youtube-icon" width="36" height="36" viewBox="0 0 36 36" fill="none" xmlns="http://www.w3.org/2000/svg">
        <circle r="18" transform="matrix(-1 0 0 1 18 18)" fill="white"/>
        <g clip-path="url(#clip0_209_9274)">
        <path d="M26.625 13.8801C26.5231 13.5165 26.3245 13.1873 26.0505 12.9276C25.7687 12.6598 25.4233 12.4683 25.047 12.3711C23.6385 11.9998 17.9955 11.9998 17.9955 11.9998C15.643 11.973 13.291 12.0908 10.953 12.3523C10.5766 12.4567 10.2319 12.6525 9.94947 12.9223C9.67197 13.1893 9.47097 13.5186 9.36597 13.8793C9.11374 15.2381 8.99119 16.6178 8.99997 17.9998C8.99097 19.3806 9.11322 20.7598 9.36597 22.1203C9.46872 22.4796 9.66897 22.8073 9.94722 23.0721C10.2255 23.3368 10.572 23.5281 10.953 23.6293C12.3802 23.9998 17.9955 23.9998 17.9955 23.9998C20.351 24.0266 22.7059 23.9089 25.047 23.6473C25.4233 23.5501 25.7687 23.3586 26.0505 23.0908C26.328 22.8261 26.5252 22.4968 26.6242 22.1383C26.883 20.78 27.0089 19.3998 27 18.0171C27.0194 16.6285 26.8938 15.2417 26.625 13.8793V13.8801ZM16.2015 20.5678V15.4326L20.8965 18.0006L16.2015 20.5678Z" fill="#1C2D10"/>
        </g>
        <defs>
        <clipPath id="clip0_209_9274">
        <rect width="18" height="18" fill="white" transform="translate(9 9)"/>
        </clipPath>
        </defs>
    </symbol>
    <symbol id="sticky-mainpage-icon" width="22" height="23" viewBox="0 0 22 23" fill="none" xmlns="http://www.w3.org/2000/svg">
        <path d="M1.09973 13.6937H3.29976V21.3993C3.29976 21.6912 3.41565 21.9712 3.62194 22.1776C3.82824 22.3841 4.10803 22.5001 4.39977 22.5001H17.6C17.8917 22.5001 18.1715 22.3841 18.3778 22.1776C18.5841 21.9712 18.7 21.6912 18.7 21.3993V13.6937H20.9C21.1126 13.6939 21.3207 13.6323 21.4989 13.5164C21.6772 13.4005 21.818 13.2353 21.9043 13.0409C21.9912 12.8466 22.0197 12.6312 21.9865 12.4209C21.9534 12.2106 21.8598 12.0145 21.7173 11.8564L11.8172 0.848464C11.4003 0.383927 10.5995 0.383927 10.1826 0.848464L0.282416 11.8564C0.140174 12.0146 0.0467792 12.2106 0.0135323 12.4207C-0.0197147 12.6309 0.00861119 12.8462 0.0950825 13.0406C0.181554 13.2349 0.322464 13.4001 0.500764 13.516C0.679063 13.6319 0.887109 13.6936 1.09973 13.6937ZM7.64372 13.3458C7.67782 13.4504 8.53803 15.8953 10.9999 15.8953C13.4958 15.8953 14.3461 13.3777 14.3549 13.3513L16.4449 14.0349C16.391 14.2011 15.0732 18.0969 10.9999 18.0969C6.92651 18.0969 5.60869 14.2011 5.55479 14.036L7.64372 13.3458Z" fill="#606C38"/>
    </symbol>
    <symbol id="sticky-suggestions-icon" width="21" height="21" viewBox="0 0 21 21" fill="none" xmlns="http://www.w3.org/2000/svg">
        <path d="M20.3805 10.059L10.9305 0.609C10.5525 0.231 10.0275 0 9.45 0H2.1C0.945 0 0 0.945 0 2.1V9.45C0 10.0275 0.231 10.5525 0.6195 10.941L10.0695 20.391C10.4475 20.769 10.9725 21 11.55 21C12.1275 21 12.6525 20.769 13.0305 20.3805L20.3805 13.0305C20.769 12.6525 21 12.1275 21 11.55C21 10.9725 20.7585 10.437 20.3805 10.059ZM11.55 18.9105L2.1 9.45V2.1H9.45V2.0895L18.9 11.5395L11.55 18.9105Z" fill="#606C38" fill-opacity="0.6"/>
    </symbol>
    <symbol id="sticky-liked-icon" width="22" height="21" viewBox="0 0 22 21" fill="none" xmlns="http://www.w3.org/2000/svg">
        <path d="M2.77083 10.6549C0.671295 7.85555 1.37114 3.65647 4.87037 2.25678C8.36961 0.857088 10.4691 3.65647 11.169 5.05617C11.8688 3.65647 14.6682 0.857088 18.1675 2.25678C21.6667 3.65647 21.6667 7.85555 19.5672 10.6549C17.4676 13.4543 11.169 19.0531 11.169 19.0531C11.169 19.0531 4.87037 13.4543 2.77083 10.6549Z" stroke="#606C38" stroke-opacity="0.6" stroke-width="2" stroke-linecap="round" stroke-linejoin="round"/>
    </symbol>
    <symbol id="sticky-comunity-icon" width="28" height="25" viewBox="0 0 28 25" fill="none" xmlns="http://www.w3.org/2000/svg">
        <path fill-rule="evenodd" clip-rule="evenodd" d="M9.48403 0.772087C9.12868 1.1541 9 1.62618 9 2.08901V2.0922V2.09539V2.09857V2.10174V2.10491V2.10808V2.11125V2.11441V2.11756V2.12072V2.12387V2.12701V2.13015V2.13329V2.13643V2.13956V2.14269V2.14581V2.14893V2.15205V2.15517V2.15828V2.16139V2.1645V2.1676V2.1707V2.1738V2.17689V2.17998V2.18307V2.18616V2.18924V2.19232V2.1954V2.19848V2.20155V2.20462V2.20769V2.21076V2.21382V2.21688V2.21994V2.223V2.22605V2.22911V2.23216V2.23521V2.23826V2.2413V2.24435V2.24739V2.25043V2.25347V2.25651V2.25954V2.26258V2.26561V2.26864V2.27167V2.2747V2.27773V2.28076V2.28378V2.28681V2.28983V2.29285V2.29588V2.2989V2.30192V2.30494V2.30795V2.31097V2.31399V2.317V2.32002V2.32304V2.32605V2.32907V2.33208V2.33509V2.33811V2.34112V2.34413V2.34715V2.35016V2.35317V2.35618V2.3592V2.36221V2.36522V2.36824V2.37125V2.37427V2.37728V2.3803V2.38331V2.38633V2.38934V2.39236V2.39538V2.3984V2.40142V2.40444V2.40746V2.41048V2.4135V2.41653V2.41955V2.42258V2.4256V2.42863V2.43166V2.43469V2.43773V2.44076V2.44379V2.44683V2.44987V2.45291V2.45595V2.45899V2.46204V2.46509V2.46813V2.47118V2.47424V2.47729V2.48035V2.4834V2.48646V2.48953V2.49259V2.49566V2.49873V2.5018V2.50487V2.50795V2.51103V2.51411V2.5172V2.52028V2.52337V2.52647V2.52956V2.53266V2.53576V2.53886V2.54197V2.54508V2.54819V2.55131V2.55443V2.55755V2.56068V2.56381V2.56694V2.57008V2.57322V2.57636V2.57951V2.58266V2.58581V2.58897V2.59213V2.5953V2.59847V2.60164V2.60482V2.608V2.61118V2.61437V2.61757V2.62076V2.62397V2.62717V2.63038V2.6336V2.63682V2.64004V2.64327V2.6465V2.64974V2.65299V2.65623V2.65948V2.66274V2.666V2.66927V2.67254V2.67582V2.6791V2.68239V2.68568V2.68898V2.69228V2.69559V2.6989V2.70222V2.70555V2.70888V2.71221V2.71556V2.7189V2.72225V2.72561V2.72898V2.73235V2.73572V2.73911V2.74249V2.74589V2.74929V2.7527V2.75611V2.75953V2.76295V2.76638V2.76982V2.77327V2.77672V2.78018V2.78364V2.78711V2.79059V2.79407V2.79756V2.80106V2.80457V2.80808V2.8116V2.81512V2.81866V2.8222V2.82574V2.8293V2.83286V2.83643V2.84V2.84359V2.84718V2.85078V2.85438V2.858V2.86162V2.86525V2.86889V2.87253V2.87618V2.87985V2.88351V2.88719V2.89088V2.89457V2.89827V2.90198V2.9057V2.90942V2.91316V2.9169V2.92065V2.92441V2.92818V2.93196V2.93574V2.93954V2.94334V2.94715V2.95097V2.9548V2.95864V2.96249V2.96634V2.97021V2.97408V2.97797V2.98186V2.98576V2.98967V2.99359V2.99752V3.00146V3.00541V3.00937V3.01334V3.01732V3.02131V3.02531V3.02931V3.03333V3.03736V3.0414V3.04544V3.0495V3.05357V3.05765V3.06173V3.06583V3.06994V3.07406V3.07819V3.08233V3.08648V3.09064V3.09481V3.09899V3.10318V3.10739V3.1116V3.11583V3.12006V3.12431V3.12857V3.13284V3.13712V3.14141V3.14571V3.15002V3.15435V3.15868V3.16303V3.16739V3.17176V3.17614V3.18054V3.18494V3.18936V3.19379V3.19823V3.20268V3.20714V3.21162V3.21611V3.22061V3.22512V3.22964V3.23418V3.23873V3.24329V3.24786V3.25244V3.25704V3.26165V3.26627V3.27091V3.27556V3.28022V3.28489V3.28957V3.29427V3.29898V3.30371V3.30845V3.3132V3.31796V3.32274V3.32752V3.33233V3.33714V3.34197V3.34681V3.35167V3.35654V3.36142V3.36632V3.37123V3.37615V3.38109V3.38604V3.391V3.39598V3.40097V3.40598V3.411V3.41603V3.42108V3.42614V3.43122V3.43631V3.44141V3.44653V3.45167V3.45681V3.46198V3.46715V3.47234V3.47755V3.48277V3.488V3.49325V3.49852V3.5038V3.50909V3.5144V3.51973V3.52506V3.53042V3.53579V3.54117V3.54657V3.55199V3.55742V3.56286V3.56832V3.5738V3.57929V3.5848V3.59032V3.59586V3.60142V3.60699V3.61257V3.61818V3.62379V3.62943V3.63508V3.64074V3.64643V3.65212V3.65784V3.66357V3.66932V3.67508V3.68086V3.68666V3.69247V3.6983V3.70414V3.71V3.71588V3.72178V3.72769V3.73362V3.73957V3.74553V3.75151V3.75751V3.76352V3.76955V3.7756V3.78167V3.78775V3.79385V3.79997V3.8061V3.81226V3.81843V3.82461V3.83082V3.83704V3.84328V3.84954V3.85582V3.86211V3.86842V3.87475V3.8811V3.88746V3.89385V3.90025V3.90667V3.91311V3.91957V3.92604V3.93253V3.93905V3.94558V3.95213V3.95869V3.96528V3.97188V3.97851V3.98515V3.99181V3.99849V4.00519V4.01191V4.01864V4.0254V4.03218V4.03897V4.04578V4.05262V4.05947V4.06634V4.07323V4.08014V4.08707V4.09402V4.10099V4.10798V4.11498V4.12201V4.12906V4.13613V4.14321V4.15032V4.15745V4.1646V4.17176V4.17895V4.18616V4.19339V4.20064V4.2079V4.21519V4.2225V4.22983V4.23718V4.24455V4.25195V4.25936V4.26679C9 5.22865 9.2326 6.02753 9.81386 6.5562C10.3822 7.07311 11.0732 7.13347 11.5 7.13346H11.5H17.25L20.5294 8.88248C20.8393 9.04778 21.2133 9.03834 21.5145 8.85762C21.8157 8.6769 22 8.35139 22 8.00013V2.81495C22 1.99679 21.7677 1.21244 21.1166 0.665473C20.5028 0.149855 19.6942 0.000138274 18.8936 0.000125638H18.8936L13.3066 0.000145486L13.1334 7.24704e-05C12.1898 -0.000523218 11.283 -0.00109578 10.6189 0.158204C10.2454 0.247794 9.81622 0.414966 9.48403 0.772087ZM11.0854 2.10304C11.5 2.0036 12.1754 2.00014 13.3066 2.00015L18.8936 2.00013H18.8936C19.4973 2.00014 19.7419 2.12265 19.8302 2.19685C19.8812 2.2397 20 2.36276 20 2.81495V6.33346L17.9706 5.25111L17.75 5.13346H17.5H11.5H11.5C11.2246 5.13347 11.1657 5.08219 11.1595 5.07663L11.1594 5.07649C11.1557 5.07315 11.1203 5.0412 11.0823 4.92961C11.0412 4.80872 11 4.60134 11 4.26679V4.25936V4.25195V4.24455V4.23718V4.22983V4.2225V4.21519V4.2079V4.20064V4.19339V4.18616V4.17895V4.17176V4.1646V4.15745V4.15032V4.14321V4.13613V4.12906V4.12201V4.11498V4.10798V4.10099V4.09402V4.08707V4.08014V4.07323V4.06634V4.05947V4.05262V4.04578V4.03897V4.03218V4.0254V4.01864V4.01191V4.00519V3.99849V3.99181V3.98515V3.97851V3.97188V3.96528V3.95869V3.95213V3.94558V3.93905V3.93253V3.92604V3.91957V3.91311V3.90667V3.90025V3.89385V3.88746V3.8811V3.87475V3.86842V3.86211V3.85582V3.84954V3.84328V3.83704V3.83082V3.82461V3.81843V3.81226V3.8061V3.79997V3.79385V3.78775V3.78167V3.7756V3.76955V3.76352V3.75751V3.75151V3.74553V3.73957V3.73362V3.72769V3.72178V3.71588V3.71V3.70414V3.6983V3.69247V3.68666V3.68086V3.67508V3.66932V3.66357V3.65784V3.65212V3.64643V3.64074V3.63508V3.62943V3.62379V3.61818V3.61257V3.60699V3.60142V3.59586V3.59032V3.5848V3.57929V3.5738V3.56832V3.56286V3.55742V3.55199V3.54657V3.54117V3.53579V3.53042V3.52506V3.51973V3.5144V3.50909V3.5038V3.49852V3.49325V3.488V3.48277V3.47755V3.47234V3.46715V3.46198V3.45681V3.45167V3.44653V3.44141V3.43631V3.43122V3.42614V3.42108V3.41603V3.411V3.40598V3.40097V3.39598V3.391V3.38604V3.38109V3.37615V3.37123V3.36632V3.36142V3.35654V3.35167V3.34681V3.34197V3.33714V3.33233V3.32752V3.32274V3.31796V3.3132V3.30845V3.30371V3.29898V3.29427V3.28957V3.28489V3.28022V3.27556V3.27091V3.26627V3.26165V3.25704V3.25244V3.24786V3.24329V3.23873V3.23418V3.22964V3.22512V3.22061V3.21611V3.21162V3.20714V3.20268V3.19823V3.19379V3.18936V3.18494V3.18054V3.17614V3.17176V3.16739V3.16303V3.15868V3.15435V3.15002V3.14571V3.14141V3.13712V3.13284V3.12857V3.12431V3.12006V3.11583V3.1116V3.10739V3.10318V3.09899V3.09481V3.09064V3.08648V3.08233V3.07819V3.07406V3.06994V3.06583V3.06173V3.05765V3.05357V3.0495V3.04544V3.0414V3.03736V3.03333V3.02931V3.02531V3.02131V3.01732V3.01334V3.00937V3.00541V3.00146V2.99752V2.99359V2.98967V2.98576V2.98186V2.97797V2.97408V2.97021V2.96634V2.96249V2.95864V2.9548V2.95097V2.94715V2.94334V2.93954V2.93574V2.93196V2.92818V2.92441V2.92065V2.9169V2.91316V2.90942V2.9057V2.90198V2.89827V2.89457V2.89088V2.88719V2.88351V2.87985V2.87618V2.87253V2.86889V2.86525V2.86162V2.858V2.85438V2.85078V2.84718V2.84359V2.84V2.83643V2.83286V2.8293V2.82574V2.8222V2.81866V2.81512V2.8116V2.80808V2.80457V2.80106V2.79756V2.79407V2.79059V2.78711V2.78364V2.78018V2.77672V2.77327V2.76982V2.76638V2.76295V2.75953V2.75611V2.7527V2.74929V2.74589V2.74249V2.73911V2.73572V2.73235V2.72898V2.72561V2.72225V2.7189V2.71556V2.71221V2.70888V2.70555V2.70222V2.6989V2.69559V2.69228V2.68898V2.68568V2.68239V2.6791V2.67582V2.67254V2.66927V2.666V2.66274V2.65948V2.65623V2.65299V2.64974V2.6465V2.64327V2.64004V2.63682V2.6336V2.63038V2.62717V2.62397V2.62076V2.61757V2.61437V2.61118V2.608V2.60482V2.60164V2.59847V2.5953V2.59213V2.58897V2.58581V2.58266V2.57951V2.57636V2.57322V2.57008V2.56694V2.56381V2.56068V2.55755V2.55443V2.55131V2.54819V2.54508V2.54197V2.53886V2.53576V2.53266V2.52956V2.52647V2.52337V2.52028V2.5172V2.51411V2.51103V2.50795V2.50487V2.5018V2.49873V2.49566V2.49259V2.48953V2.48646V2.4834V2.48035V2.47729V2.47424V2.47118V2.46813V2.46509V2.46204V2.45899V2.45595V2.45291V2.44987V2.44683V2.44379V2.44076V2.43773V2.43469V2.43166V2.42863V2.4256V2.42258V2.41955V2.41653V2.4135V2.41048V2.40746V2.40444V2.40142V2.3984V2.39538V2.39236V2.38934V2.38633V2.38331V2.3803V2.37728V2.37427V2.37125V2.36824V2.36522V2.36221V2.3592V2.35618V2.35317V2.35016V2.34715V2.34413V2.34112V2.33811V2.33509V2.33208V2.32907V2.32605V2.32304V2.32002V2.317V2.31399V2.31097V2.30795V2.30494V2.30192V2.2989V2.29588V2.29285V2.28983V2.28681V2.28378V2.28076V2.27773V2.2747V2.27167V2.26864V2.26561V2.26258V2.25954V2.25651V2.25347V2.25043V2.24739V2.24435V2.2413V2.23826V2.23521V2.23216V2.22911V2.22605V2.223V2.21994V2.21688V2.21382V2.21076V2.20769V2.20462V2.20155V2.19848V2.1954V2.19232V2.18924V2.18616V2.18307V2.17998V2.17689V2.1738V2.1707V2.1676V2.1645V2.16139V2.15828V2.15517V2.15205V2.14893V2.14581V2.14269V2.13956V2.13643V2.13329V2.13015V2.12701V2.12664C11.0225 2.11941 11.0507 2.11137 11.0854 2.10304ZM8.14168 18.381C5.39858 18.5634 3.10445 20.4436 2.304 23.0002H14.8573C14.0568 20.4436 11.7627 18.5634 9.01952 18.3809C8.87509 18.395 8.72867 18.4021 8.58058 18.4021C8.43251 18.4021 8.2861 18.395 8.14168 18.381ZM5.32647 17.0089C2.79729 18.0527 0.873339 20.2768 0.231393 23.0002C0.0800852 23.6421 0 24.3117 0 25.0002H2H15.1613H17.1613V25.0001H27H28V24.0001C28 21.0917 26.3012 18.5764 23.6199 17.5249C24.2752 16.832 24.6774 15.8946 24.6774 14.8626C24.6774 12.7294 22.9588 11.0001 20.8387 11.0001C18.7186 11.0001 17 12.7294 17 14.8626C17 15.861 17.3765 16.771 17.9944 17.4565C16.852 17.892 15.8623 18.5952 15.0555 19.3345C14.1835 18.3265 13.0828 17.524 11.8347 17.0089C12.6162 16.192 13.0967 15.0815 13.0967 13.8581C13.0967 11.3484 11.0748 9.31397 8.58058 9.31397C6.08639 9.31397 4.06445 11.3484 4.06445 13.8581C4.06445 15.0815 4.54497 16.192 5.32647 17.0089ZM8.95274 16.3744C8.82936 16.3691 8.70531 16.3664 8.58064 16.3664C8.45593 16.3664 8.33185 16.3691 8.20844 16.3744C7.00352 16.1931 6.06445 15.1449 6.06445 13.8581C6.06445 12.4413 7.20258 11.314 8.58058 11.314C9.95858 11.314 11.0967 12.4413 11.0967 13.8581C11.0967 15.1449 10.1576 16.1931 8.95274 16.3744ZM16.1924 21.011C16.5153 21.6334 16.7649 22.3003 16.9299 23.0001H25.9047C25.449 20.654 23.3904 18.8584 20.4075 19.0089L20.3824 19.0102H20.3571C18.7757 19.0102 17.3373 19.8981 16.1924 21.011ZM20.8387 16.7251C21.8426 16.7251 22.6774 15.9029 22.6774 14.8626C22.6774 13.8223 21.8426 13.0001 20.8387 13.0001C19.8348 13.0001 19 13.8223 19 14.8626C19 15.9029 19.8348 16.7251 20.8387 16.7251Z" fill="#606C38" fill-opacity="0.6"/>
    </symbol>
    <symbol id="sticky-account-icon" width="19" height="23" viewBox="0 0 19 23" fill="none" xmlns="http://www.w3.org/2000/svg">
        <path d="M9.49992 11.5001C12.1463 11.5001 14.2916 9.35478 14.2916 6.70841C14.2916 4.06205 12.1463 1.91675 9.49992 1.91675C6.85355 1.91675 4.70825 4.06205 4.70825 6.70841C4.70825 9.35478 6.85355 11.5001 9.49992 11.5001Z" stroke="#606C38" stroke-opacity="0.6" stroke-width="2"/>
        <path d="M14.2916 13.4167H14.6289C15.3295 13.4169 16.0059 13.673 16.5311 14.1367C17.0563 14.6005 17.394 15.24 17.4809 15.9352L17.8556 18.9291C17.8893 19.1988 17.8653 19.4726 17.7851 19.7323C17.7049 19.992 17.5704 20.2316 17.3905 20.4354C17.2105 20.6391 16.9894 20.8023 16.7416 20.914C16.4938 21.0257 16.2251 21.0835 15.9533 21.0834H3.04648C2.77468 21.0835 2.50597 21.0257 2.2582 20.914C2.01042 20.8023 1.78924 20.6391 1.60934 20.4354C1.42943 20.2316 1.29492 19.992 1.21472 19.7323C1.13453 19.4726 1.11048 19.1988 1.14419 18.9291L1.51794 15.9352C1.60485 15.2397 1.94288 14.5999 2.46844 14.1361C2.99401 13.6723 3.67091 13.4165 4.37185 13.4167H4.70823" stroke="#606C38" stroke-opacity="0.6" stroke-width="2" stroke-linecap="round" stroke-linejoin="round"/>
    </symbol>

    <symbol id="star-icon" width="14" height="13" viewBox="0 0 14 13" xmlns="http://www.w3.org/2000/svg">
        <path d="M7 0L8.5716 4.83688H13.6574L9.5429 7.82624L11.1145 12.6631L7 9.67376L2.8855 12.6631L4.4571 7.82624L0.342604 4.83688H5.4284L7 0Z"/>
    </symbol>
    <symbol id='password-icon' width="14" height="14" viewBox="0 0 14 14" fill="none" xmlns="http://www.w3.org/2000/svg">
        <path d="M9.11981 9.82674L13.1454 13.8534C13.1919 13.8999 13.2471 13.9367 13.3078 13.9619C13.3686 13.9871 13.4337 14 13.4994 14C13.5652 14 13.6302 13.9871 13.691 13.9619C13.7517 13.9367 13.8069 13.8999 13.8534 13.8534C13.8999 13.8069 13.9367 13.7517 13.9619 13.691C13.9871 13.6302 14 13.5652 14 13.4994C14 13.4337 13.9871 13.3686 13.9619 13.3078C13.9367 13.2471 13.8999 13.1919 13.8534 13.1454L0.854555 0.146618C0.808071 0.100135 0.752887 0.0632617 0.692153 0.0381049C0.631419 0.012948 0.566324 4.89786e-10 0.500586 0C0.434849 -4.89786e-10 0.369754 0.012948 0.30902 0.0381049C0.248286 0.0632617 0.193102 0.100135 0.146618 0.146618C0.100135 0.193102 0.0632617 0.248286 0.0381049 0.30902C0.012948 0.369754 -4.89786e-10 0.434849 0 0.500586C4.89786e-10 0.566324 0.012948 0.631419 0.0381049 0.692153C0.0632617 0.752887 0.100135 0.808071 0.146618 0.854555L3.37633 4.08426C2.93675 4.39566 2.54121 4.76496 2.20043 5.18216C1.71788 5.77427 1.34013 6.44454 1.08353 7.16399C1.06254 7.22498 1.03654 7.30897 1.03654 7.30897L1.01854 7.37097C1.01854 7.37097 0.942546 7.86792 1.37351 7.98191C1.50159 8.01577 1.63788 7.9974 1.75243 7.93084C1.86698 7.86429 1.95043 7.75498 1.98445 7.62694L1.98545 7.62394L1.99345 7.59895L2.02845 7.48996C2.24639 6.88254 2.5659 6.31654 2.97336 5.81611C3.29368 5.4224 3.67276 5.08042 4.09726 4.8022L5.67512 6.38006C5.35671 6.57962 5.08739 6.84841 4.8872 7.16642C4.687 7.48444 4.56108 7.84349 4.51879 8.21689C4.47651 8.59028 4.51895 8.9684 4.64296 9.32313C4.76697 9.67786 4.96936 10.0001 5.23508 10.2658C5.5008 10.5315 5.823 10.7339 6.17773 10.8579C6.53246 10.9819 6.91058 11.0244 7.28398 10.9821C7.65737 10.9398 8.01643 10.8139 8.33444 10.6137C8.65245 10.4135 8.92124 10.1442 9.12081 9.82575L9.11981 9.82674ZM5.32015 3.19934L6.17407 4.05327C6.43405 4.01927 6.70903 4.00027 7 4.00027C9.04382 4.00027 10.2857 4.91219 11.0276 5.81711C11.4352 6.31748 11.7547 6.88349 11.9726 7.49096C11.9895 7.53895 12.0005 7.57595 12.0075 7.59995L12.0155 7.62494V7.62794L12.0165 7.62894C12.0535 7.75373 12.1377 7.85917 12.2513 7.92285C12.3648 7.98654 12.4986 8.00344 12.6244 7.96998C12.7502 7.93652 12.858 7.85532 12.9248 7.74365C12.9917 7.63198 13.0124 7.49864 12.9825 7.37197V7.36897L12.9815 7.36497L12.9775 7.35197C12.9601 7.28882 12.9401 7.22643 12.9175 7.16499C12.6609 6.44554 12.2831 5.77527 11.8006 5.18316C10.9046 4.08826 9.39578 3.00036 7.002 3.00036C6.38406 3.00036 5.82511 3.07235 5.32115 3.19934H5.32015Z" fill="black"/>
    </symbol>
    <symbol id="login-facebook" width="8" height="18" viewBox="0 0 8 18" fill="none" xmlns="http://www.w3.org/2000/svg">
        <path d="M1.82139 3.35658V5.68035H0.142822V8.5574H1.82139V17.041H5.21425V8.5574H7.53568C7.67854 7.64756 7.77378 6.68855 7.82139 5.68035H5.24997V3.72543C5.24997 3.57789 5.32735 3.4242 5.48211 3.26437C5.63687 3.10453 5.80949 3.02461 5.99997 3.02461H7.85711V0.0737915H5.32139C4.65473 0.0737915 4.07735 0.1783 3.58925 0.387316C3.10116 0.596333 2.74997 0.829939 2.53568 1.08814C2.32139 1.34633 2.15473 1.65986 2.03568 2.02871C1.91663 2.39756 1.85116 2.66191 1.83925 2.82174C1.82735 2.98158 1.82139 3.15986 1.82139 3.35658Z" fill="#395185"/>
    </symbol>
    <symbol id="login-google" width="25" height="25" viewBox="0 0 25 25" fill="none" xmlns="http://www.w3.org/2000/svg">
        <path d="M22.714 10.4599H21.8749V10.4166H12.4999V14.5833H18.3869C17.528 17.0088 15.2202 18.75 12.4999 18.75C9.04836 18.75 6.24992 15.9515 6.24992 12.5C6.24992 9.04842 9.04836 6.24998 12.4999 6.24998C14.0931 6.24998 15.5426 6.85102 16.6463 7.83279L19.5926 4.88644C17.7322 3.15258 15.2437 2.08331 12.4999 2.08331C6.74731 2.08331 2.08325 6.74738 2.08325 12.5C2.08325 18.2526 6.74731 22.9166 12.4999 22.9166C18.2525 22.9166 22.9166 18.2526 22.9166 12.5C22.9166 11.8015 22.8447 11.1198 22.714 10.4599Z" fill="#FFC107"/>
        <path d="M3.28418 7.65154L6.70658 10.1614C7.63262 7.86873 9.87533 6.24998 12.4998 6.24998C14.093 6.24998 15.5425 6.85102 16.6462 7.83279L19.5925 4.88644C17.7321 3.15258 15.2436 2.08331 12.4998 2.08331C8.49876 2.08331 5.02897 4.34217 3.28418 7.65154Z" fill="#FF3D00"/>
        <path d="M12.5 22.9167C15.1906 22.9167 17.6354 21.887 19.4839 20.2126L16.2599 17.4844C15.1789 18.3065 13.8581 18.7511 12.5 18.7501C9.79062 18.7501 7.4901 17.0224 6.62344 14.6115L3.22656 17.2287C4.95052 20.6021 8.45156 22.9167 12.5 22.9167Z" fill="#4CAF50"/>
        <path d="M22.7141 10.4599H21.875V10.4167H12.5V14.5834H18.387C17.9762 15.7377 17.2361 16.7465 16.2583 17.4849L16.2599 17.4839L19.4839 20.212C19.2557 20.4193 22.9167 17.7084 22.9167 12.5C22.9167 11.8016 22.8448 11.1198 22.7141 10.4599Z" fill="#1976D2"/>
    </symbol>
    <symbol id="search-close-icon" width="17" height="17" viewBox="0 0 17 17" fill="none" xmlns="http://www.w3.org/2000/svg">
        <path d="M4.17166 4.17151L12.5148 12.5146" stroke="#606C38" stroke-width="2"/>
        <path d="M4.17166 12.5148L12.5148 4.17163" stroke="#606C38" stroke-width="2"/>
    </symbol>
    <symbol id="header-comunity" width="25" height="31" viewBox="0 0 25 31" fill="none" xmlns="http://www.w3.org/2000/svg">
        <path d="M2.29161 14.0417C2.67838 14.0417 3.04932 13.888 3.32281 13.6145C3.5963 13.341 3.74994 12.9701 3.74994 12.5833V6.75C3.74994 6.36323 3.5963 5.99229 3.32281 5.7188C3.04932 5.44531 2.67838 5.29167 2.29161 5.29167C1.90484 5.29167 1.5339 5.44531 1.26041 5.7188C0.986922 5.99229 0.833276 6.36323 0.833276 6.75V12.5833C0.833276 12.9701 0.986922 13.341 1.26041 13.6145C1.5339 13.888 1.90484 14.0417 2.29161 14.0417ZM1.25619 3.41042C1.46127 3.61277 1.72169 3.74985 2.00459 3.80435C2.28749 3.85886 2.5802 3.82834 2.84578 3.71667C3.0225 3.64281 3.18527 3.53923 3.32703 3.41042C3.45584 3.26867 3.55942 3.10589 3.63328 2.92917C3.71492 2.75609 3.75487 2.5663 3.74994 2.375C3.75105 2.18307 3.71427 1.99282 3.64169 1.81514C3.56912 1.63746 3.46219 1.47585 3.32703 1.33958C3.12195 1.13723 2.86153 1.00015 2.57863 0.945647C2.29573 0.891143 2.00302 0.921655 1.73744 1.03333C1.55843 1.10274 1.39489 1.20682 1.25619 1.33958C1.12103 1.47585 1.0141 1.63746 0.941527 1.81514C0.868953 1.99282 0.832167 2.18307 0.833276 2.375C0.83558 2.56557 0.875216 2.75384 0.949943 2.92917C1.0238 3.10589 1.12738 3.26867 1.25619 3.41042ZM19.7916 6.75H8.12494C7.73817 6.75 7.36724 6.90365 7.09375 7.17714C6.82025 7.45063 6.66661 7.82156 6.66661 8.20833C6.66661 8.59511 6.82025 8.96604 7.09375 9.23953C7.36724 9.51302 7.73817 9.66667 8.12494 9.66667H19.7916C20.1784 9.66667 20.5493 9.82031 20.8228 10.0938C21.0963 10.3673 21.2499 10.7382 21.2499 11.125V25.3L18.9604 23.1854C18.6914 22.9336 18.3371 22.7929 17.9687 22.7917H5.20828C4.8215 22.7917 4.45057 22.638 4.17708 22.3645C3.90359 22.091 3.74994 21.7201 3.74994 21.3333V18.4167C3.74994 18.0299 3.5963 17.659 3.32281 17.3855C3.04932 17.112 2.67838 16.9583 2.29161 16.9583C1.90484 16.9583 1.5339 17.112 1.26041 17.3855C0.986922 17.659 0.833276 18.0299 0.833276 18.4167V21.3333C0.833276 22.4937 1.29421 23.6065 2.11468 24.4269C2.93516 25.2474 4.04795 25.7083 5.20828 25.7083H17.3999L21.7749 29.6896C22.029 29.9281 22.3601 30.0678 22.7083 30.0833C22.9083 30.0812 23.1061 30.0416 23.2916 29.9667C23.5525 29.8528 23.7743 29.6651 23.9298 29.4267C24.0853 29.1883 24.1676 28.9096 24.1666 28.625V11.125C24.1666 9.96468 23.7057 8.85188 22.8852 8.03141C22.0647 7.21094 20.9519 6.75 19.7916 6.75Z" fill="white"/>
    </symbol>
    <symbol id="reload-icon" width="20" height="20" viewBox="0 0 20 20" fill="none" xmlns="http://www.w3.org/2000/svg">
        <g clip-path="url(#clip0_237_11457)">
        <path d="M19.295 12C19.388 11.9999 19.48 12.0181 19.5659 12.0538C19.6518 12.0894 19.7297 12.1417 19.7952 12.2076C19.8608 12.2735 19.9126 12.3518 19.9478 12.4378C19.9829 12.5239 20.0007 12.616 20 12.709V15.913C20.0007 16.0055 19.9831 16.0973 19.9482 16.183C19.9134 16.2688 19.862 16.3468 19.797 16.4126C19.732 16.4785 19.6546 16.5309 19.5694 16.5668C19.4841 16.6027 19.3926 16.6215 19.3 16.622C19.2075 16.6215 19.116 16.6027 19.0307 16.5668C18.9454 16.5309 18.868 16.4785 18.803 16.4126C18.738 16.3468 18.6866 16.2688 18.6518 16.183C18.6169 16.0973 18.5994 16.0055 18.6 15.913V14.788C16.779 17.844 13.399 20 9.75702 20C5.34702 20 1.65102 17.279 0.0480178 13.085C-0.0192879 12.9103 -0.0150476 12.716 0.0598204 12.5444C0.134688 12.3728 0.274156 12.2375 0.448018 12.168C0.808018 12.027 1.21402 12.208 1.35402 12.573C2.75402 16.235 5.94202 18.583 9.75702 18.583C13.128 18.583 16.277 16.401 17.744 13.429L16.273 13.439C16.1805 13.4391 16.0888 13.421 16.0033 13.3857C15.9178 13.3504 15.84 13.2985 15.7746 13.2332C15.7091 13.1678 15.6571 13.0901 15.6217 13.0046C15.5863 12.9192 15.568 12.8275 15.568 12.735C15.5656 12.5482 15.6375 12.3681 15.7678 12.2342C15.8981 12.1003 16.0762 12.0236 16.263 12.021L19.295 12ZM10.245 0C14.653 0 18.35 2.721 19.953 6.915C20.0203 7.08974 20.0161 7.28396 19.9412 7.45559C19.8663 7.62723 19.7269 7.76246 19.553 7.832C19.467 7.86555 19.3752 7.88167 19.2829 7.87943C19.1906 7.87719 19.0996 7.85663 19.0153 7.81895C18.931 7.78127 18.8551 7.72722 18.7918 7.65993C18.7286 7.59265 18.6794 7.51347 18.647 7.427C17.247 3.765 14.059 1.417 10.244 1.417C6.87302 1.417 3.72402 3.599 2.25702 6.571L3.72802 6.561C3.82055 6.56087 3.91221 6.57898 3.99773 6.6143C4.08326 6.64962 4.16099 6.70146 4.22647 6.76684C4.29195 6.83223 4.34389 6.90988 4.37933 6.99536C4.41478 7.08084 4.43302 7.17246 4.43302 7.265C4.43542 7.45181 4.36358 7.63194 4.23326 7.76581C4.10295 7.89969 3.92483 7.97637 3.73802 7.979L0.705018 8C0.612061 8.00013 0.519998 7.98186 0.434141 7.94623C0.348285 7.91059 0.270335 7.85831 0.204791 7.79239C0.139246 7.72648 0.0874051 7.64823 0.0522589 7.56218C0.0171127 7.47612 -0.000642541 7.38395 1.77626e-05 7.291V4.087C1.77626e-05 3.695 0.313018 3.378 0.700018 3.378C1.08602 3.378 1.40002 3.695 1.40002 4.087V5.212C3.22102 2.156 6.60102 0 10.243 0H10.245Z" fill="#606C38"/>
        </g>
        <defs>
        <clipPath id="clip0_237_11457">
        <rect width="20" height="20" fill="white"/>
        </clipPath>
        </defs>
    </symbol>
    <symbol id="pagination-btn" width="12" height="18" viewBox="0 0 12 18" fill="none" xmlns="http://www.w3.org/2000/svg">
        <path d="M1.38079 0.785156L9.9585 8.93073L1.38079 17.0763" stroke="#606C38" stroke-width="2"/>
    </symbol>
    <symbol id="filter-thumb-icon" width="15" height="15" viewBox="0 0 15 15" fill="none" xmlns="http://www.w3.org/2000/svg">
    <path d="M13.75 1.6665H1.24998C1.13947 1.6665 1.03349 1.7104 0.955352 1.78854C0.877212 1.86668 0.833313 1.97266 0.833313 2.08317V2.779C0.833391 2.87741 0.852944 2.97484 0.890845 3.06566C0.928746 3.15648 0.984246 3.2389 1.05415 3.30817L5.83331 8.15817V12.4082L6.66665 12.7248V7.9165C6.66696 7.86167 6.65645 7.80731 6.63572 7.75654C6.61498 7.70578 6.58443 7.6596 6.54581 7.62067L1.66665 2.74567V2.49984H13.3333V2.754L8.47081 7.62067C8.42917 7.6582 8.39553 7.70374 8.37191 7.75457C8.34828 7.8054 8.33515 7.86048 8.33331 7.9165V13.4207L9.16665 13.7498V8.12484L13.9458 3.33317C14.0168 3.26214 14.073 3.17764 14.1109 3.08462C14.1488 2.9916 14.1678 2.89195 14.1666 2.7915V2.08317C14.1666 1.97266 14.1227 1.86668 14.0446 1.78854C13.9665 1.7104 13.8605 1.6665 13.75 1.6665Z" fill="black"/>
    </symbol>
</svg>